<?xml version="1.0" standalone="no"?>
<!DOCTYPE svg PUBLIC "-//W3C//DTD SVG 20010904//EN"
 "http://www.w3.org/TR/2001/REC-SVG-20010904/DTD/svg10.dtd">
<svg version="1.0" xmlns="http://www.w3.org/2000/svg"
 width="223.000000pt" height="223.000000pt" viewBox="0 0 223.000000 223.000000"
 preserveAspectRatio="xMidYMid meet">
<metadata>
Created by potrace 1.11, written by Peter Selinger 2001-2013
</metadata>
<g transform="translate(0.000000,223.000000) scale(0.100000,-0.100000)"
fill="#000000" stroke="none">
<path d="M767 2054 c-1 -1 -21 -4 -45 -8 -80 -11 -124 -39 -242 -157 -63 -63
-142 -137 -174 -164 -32 -28 -64 -55 -70 -60 -6 -6 -40 -35 -76 -65 -36 -30
-67 -57 -70 -60 -3 -3 -20 -18 -38 -33 -50 -40 -26 -33 79 24 192 105 415 192
548 215 14 3 33 7 41 9 68 20 321 33 400 21 14 -2 48 -7 75 -11 70 -9 220 -60
282 -96 l52 -30 38 33 c75 65 231 226 270 279 22 30 40 64 41 77 l1 24 -37
-29 -37 -28 -190 0 c-166 0 -248 4 -420 20 -63 6 -142 15 -260 31 -51 6 -163
12 -168 8z"/>
<path d="M1759 1763 c-29 -37 -61 -77 -71 -88 -9 -11 -32 -40 -52 -64 l-36
-43 52 -61 c29 -34 62 -71 73 -83 11 -11 37 -40 58 -64 33 -38 36 -45 23 -59
-128 -148 -174 -228 -157 -275 8 -20 161 -178 179 -183 18 -7 165 157 183 204
19 51 0 94 -71 163 -37 36 -79 76 -95 88 l-27 24 44 46 c83 87 99 107 114 142
36 84 11 150 -98 258 l-64 63 -55 -68z"/>
<path d="M1175 1683 c-11 -21 -45 -63 -76 -94 -63 -63 -140 -99 -211 -99 -23
0 -39 -2 -36 -5 3 -3 66 -30 141 -59 l136 -53 63 31 c35 17 88 48 118 68 53
36 150 124 150 138 0 6 -201 92 -245 104 -16 5 -25 -2 -40 -31z"/>
<path d="M359 1547 c-20 -12 -82 -48 -138 -80 -100 -57 -102 -59 -97 -90 4
-29 17 -127 31 -242 35 -279 24 -753 -20 -908 -8 -26 -11 -46 -7 -44 148 77
284 97 617 92 132 -2 256 -6 275 -8 19 -3 69 -8 110 -12 91 -8 155 -14 195
-20 17 -2 57 -7 90 -10 33 -4 67 -8 75 -10 8 -2 38 -7 65 -11 28 -3 84 -12
125 -19 41 -7 76 -12 78 -11 2 3 -362 371 -390 394 -12 10 -31 9 -99 -8 -177
-41 -310 -56 -480 -54 -90 1 -173 4 -184 7 -11 2 -50 10 -87 17 -73 13 -79 18
-97 69 -27 82 -33 383 -12 595 1 5 11 -4 23 -20 49 -62 76 -89 145 -145 156
-124 399 -256 686 -370 53 -21 99 -39 102 -39 2 0 3 77 2 172 l-2 171 -120 37
c-203 62 -339 125 -500 234 -98 66 -266 226 -309 294 -14 23 -30 42 -34 41 -4
0 -23 -10 -43 -22z"/>
<path d="M866 1421 c-2 -3 -3 -53 -2 -110 l1 -105 65 -38 c92 -53 199 -105
266 -128 65 -23 146 -26 162 -7 6 7 10 72 11 156 l0 143 -27 -8 c-15 -5 -65
-9 -112 -8 -96 1 -185 24 -293 77 -37 19 -69 31 -71 28z"/>
<path d="M1725 720 c-142 -176 -130 -152 -94 -191 16 -19 64 -73 106 -121 42
-49 79 -88 82 -87 14 2 139 150 155 183 22 47 23 104 2 144 -9 17 -49 65 -88
107 l-73 76 -90 -111z"/>
</g>
</svg>
